<svg width="25" height="25" viewBox="0 0 25 25" fill="none" xmlns="http://www.w3.org/2000/svg">
<path opacity="0.2" d="M5.19645 17.0702C4.07826 15.1852 3.68666 12.9568 4.09518 10.8035C4.50371 8.65024 5.68425 6.72014 7.41514 5.37567C9.14603 4.0312 11.3082 3.36485 13.4956 3.50173C15.683 3.63861 17.7453 4.56932 19.295 6.11909C20.8448 7.66885 21.7755 9.73107 21.9124 11.9185C22.0493 14.1059 21.383 16.2681 20.0385 17.999C18.694 19.7299 16.7639 20.9104 14.6107 21.319C12.4574 21.7275 10.229 21.3359 8.34399 20.2177L8.34401 20.2176L5.23558 21.1057C5.10697 21.1425 4.97088 21.1442 4.84141 21.1106C4.71193 21.0771 4.59378 21.0095 4.4992 20.9149C4.40463 20.8204 4.33706 20.7022 4.30351 20.5727C4.26996 20.4433 4.27165 20.3072 4.30839 20.1786L5.19651 17.0701L5.19645 17.0702Z" fill="#514EFC"/>
<path d="M5.19645 17.0702C4.07826 15.1852 3.68666 12.9568 4.09518 10.8035C4.50371 8.65024 5.68425 6.72014 7.41514 5.37567C9.14603 4.0312 11.3082 3.36485 13.4956 3.50173C15.683 3.63861 17.7453 4.56932 19.295 6.11909C20.8448 7.66885 21.7755 9.73107 21.9124 11.9185C22.0493 14.1059 21.383 16.2681 20.0385 17.999C18.694 19.7299 16.7639 20.9104 14.6107 21.319C12.4574 21.7275 10.229 21.3359 8.34399 20.2177L8.34401 20.2176L5.23558 21.1057C5.10697 21.1425 4.97088 21.1442 4.84141 21.1106C4.71193 21.0771 4.59378 21.0095 4.4992 20.9149C4.40463 20.8204 4.33706 20.7022 4.30351 20.5727C4.26996 20.4433 4.27165 20.3072 4.30839 20.1786L5.19651 17.0701L5.19645 17.0702Z" stroke="#514EFC" stroke-width="2" stroke-linecap="round" stroke-linejoin="round"/>
<path d="M9.9375 10.9766H15.9375" stroke="#514EFC" stroke-width="2" stroke-linecap="round" stroke-linejoin="round"/>
<path d="M9.9375 13.9766H15.9375" stroke="#514EFC" stroke-width="2" stroke-linecap="round" stroke-linejoin="round"/>
</svg>
