<svg width="25" height="25" viewBox="0 0 25 25" fill="none" xmlns="http://www.w3.org/2000/svg">
<path opacity="0.2" d="M9.60715 12.1781C10.3851 13.7686 11.6744 15.052 13.2684 15.8227C13.385 15.8779 13.514 15.9019 13.6427 15.8921C13.7714 15.8824 13.8954 15.8393 14.0023 15.7671L16.3494 14.202C16.4532 14.1328 16.5727 14.0906 16.6969 14.0792C16.8212 14.0678 16.9463 14.0875 17.061 14.1367L21.4519 16.0185C21.6011 16.0819 21.7256 16.192 21.8068 16.3323C21.8879 16.4726 21.9213 16.6355 21.9018 16.7963C21.763 17.8823 21.2331 18.8805 20.4114 19.604C19.5896 20.3274 18.5323 20.7266 17.4375 20.7266C14.056 20.7266 10.813 19.3833 8.42189 16.9922C6.0308 14.6011 4.6875 11.3581 4.6875 7.97662C4.68756 6.88179 5.08668 5.82451 5.81014 5.00276C6.5336 4.18101 7.53178 3.65113 8.61778 3.51234C8.77867 3.49287 8.94153 3.52622 9.08182 3.60735C9.22211 3.68848 9.33223 3.81301 9.3956 3.96218L11.2791 8.35698C11.3278 8.47065 11.3476 8.59461 11.3369 8.71781C11.3261 8.84102 11.285 8.95964 11.2173 9.06313L9.65761 11.4462C9.58662 11.5534 9.54466 11.6772 9.53581 11.8055C9.52697 11.9338 9.55155 12.0621 9.60715 12.1781Z" fill="#514EFC"/>
<path d="M9.60715 12.1781C10.3851 13.7686 11.6744 15.052 13.2684 15.8227C13.385 15.8779 13.514 15.9019 13.6427 15.8921C13.7714 15.8824 13.8954 15.8393 14.0023 15.7671L16.3494 14.202C16.4532 14.1328 16.5727 14.0906 16.6969 14.0792C16.8212 14.0678 16.9463 14.0875 17.061 14.1367L21.4519 16.0185C21.6011 16.0819 21.7256 16.192 21.8068 16.3323C21.8879 16.4726 21.9213 16.6355 21.9018 16.7963C21.763 17.8823 21.2331 18.8805 20.4114 19.604C19.5896 20.3274 18.5323 20.7266 17.4375 20.7266C14.056 20.7266 10.813 19.3833 8.42189 16.9922C6.0308 14.6011 4.6875 11.3581 4.6875 7.97662C4.68756 6.88179 5.08668 5.82451 5.81014 5.00276C6.5336 4.18101 7.53178 3.65113 8.61778 3.51234C8.77867 3.49287 8.94153 3.52622 9.08182 3.60735C9.22211 3.68848 9.33223 3.81301 9.3956 3.96218L11.2791 8.35698C11.3278 8.47065 11.3476 8.59461 11.3369 8.71781C11.3261 8.84102 11.285 8.95964 11.2173 9.06313L9.65761 11.4462C9.58662 11.5534 9.54466 11.6772 9.53581 11.8055C9.52697 11.9338 9.55155 12.0621 9.60715 12.1781V12.1781Z" stroke="#514EFC" stroke-width="2" stroke-linecap="round" stroke-linejoin="round"/>
<path d="M15.8829 4.22662C17.1544 4.56856 18.3136 5.23858 19.2446 6.16956C20.1756 7.10055 20.8456 8.25981 21.1875 9.53124" stroke="#514EFC" stroke-width="2" stroke-linecap="round" stroke-linejoin="round"/>
<path d="M15.1063 7.12512C15.8691 7.33028 16.5647 7.73229 17.1233 8.29088C17.6819 8.84947 18.0839 9.54503 18.289 10.3079" stroke="#514EFC" stroke-width="2" stroke-linecap="round" stroke-linejoin="round"/>
</svg>
