<svg width="15" height="15" viewBox="0 0 15 15" fill="none" xmlns="http://www.w3.org/2000/svg">
<path fill-rule="evenodd" clip-rule="evenodd" d="M10.6304 6.6538C10.6304 7.24474 10.514 7.82991 10.2878 8.37587C10.0617 8.92184 9.7302 9.41791 9.3124 9.8358C8.8945 10.2536 8.39844 10.5851 7.85247 10.8113C7.30651 11.0374 6.72134 11.1538 6.13039 11.1538C5.53944 11.1538 4.95429 11.0374 4.40832 10.8113C3.86236 10.5851 3.36628 10.2536 2.94842 9.8358C2.53054 9.41791 2.19908 8.92184 1.97293 8.37587C1.74678 7.82991 1.63039 7.24474 1.63039 6.6538C1.63039 5.46032 2.1045 4.31573 2.94842 3.47182C3.79233 2.6279 4.93691 2.1538 6.13039 2.1538C7.32386 2.1538 8.46845 2.6279 9.3124 3.47182C10.1563 4.31573 10.6304 5.46032 10.6304 6.6538ZM9.8104 11.3938C8.60477 12.3298 7.08776 12.7711 5.56819 12.6279C4.04862 12.4848 2.64074 11.7679 1.63115 10.6232C0.621545 9.47851 0.0861449 7.99209 0.133925 6.46655C0.181715 4.941 0.809095 3.491 1.88835 2.41175C2.96761 1.3325 4.41759 0.705122 5.94314 0.657332C7.46869 0.609549 8.9551 1.14495 10.0998 2.15455C11.2445 3.16414 11.9614 4.57203 12.1045 6.0916C12.2477 7.61116 11.8064 9.12817 10.8704 10.3338L13.9104 13.3738C13.9841 13.4425 14.0432 13.5253 14.0842 13.6173C14.1252 13.7093 14.1472 13.8086 14.149 13.9093C14.1508 14.01 14.1322 14.11 14.0945 14.2034C14.0568 14.2968 14.0006 14.3816 13.9294 14.4528C13.8582 14.5241 13.7734 14.5802 13.68 14.6179C13.5866 14.6556 13.4866 14.6742 13.3859 14.6724C13.2852 14.6706 13.1858 14.6486 13.0939 14.6076C13.0019 14.5666 12.9191 14.5075 12.8504 14.4338L9.8104 11.3938Z" fill="#1F2A33"/>
</svg>
